<svg xmlns="http://www.w3.org/2000/svg" viewBox="0 0 430 130" role="img" aria-label="RondaVizinho — o vigia inteligente da sua rua">
  <defs>
    <linearGradient id="ronda" x1="0" y1="0" x2="1" y2="1">
      <stop offset="0" stop-color="#2563eb"/>
      <stop offset="1" stop-color="#10b981"/>
    </linearGradient>
  </defs>
  <g transform="translate(8 12) scale(1.06)">
    <circle cx="50" cy="50" r="42" fill="none" stroke="url(#ronda)" stroke-width="6"
            stroke-linecap="round" stroke-dasharray="180 40" transform="rotate(-60 50 50)"/>
    <circle cx="50" cy="8" r="6" fill="#10b981"/>
    <path d="M50 30 L72 48 66 48 66 70 34 70 34 48 28 48 Z" fill="#1e3a8a"/>
    <circle cx="50" cy="56" r="6.5" fill="#e0f2fe"/>
    <circle cx="50" cy="56" r="2.8" fill="#1e3a8a"/>
  </g>
  <path fill="#1e3a8a" d="M121.25 62L121.25 36.50L138.32 36.50Q142.06 36.50 144.34 36.83Q146.62 37.16 147.80 37.98Q148.98 38.79 149.39 40.20Q149.81 41.61 149.81 43.77L149.81 44.44Q149.81 46.43 149.34 47.86Q148.86 49.30 147.52 50.19Q146.17 51.08 143.53 51.44L149.08 62L145.89 62L140.46 51.67Q140.13 51.69 139.77 51.69Q139.42 51.69 139.03 51.69L124.44 51.69L124.44 62L121.25 62M124.44 39.26L124.44 48.93L138.54 48.93Q141.38 48.93 143.01 48.74Q144.65 48.55 145.42 48.07Q146.19 47.59 146.41 46.71Q146.62 45.83 146.62 44.44L146.62 43.77Q146.62 42.19 146.32 41.28Q146.02 40.37 145.13 39.94Q144.23 39.50 142.45 39.38Q140.68 39.26 137.71 39.26M165.95 62.37Q162.74 62.37 160.50 62.04Q158.26 61.72 156.88 60.71Q155.50 59.71 154.87 57.70Q154.24 55.69 154.24 52.34Q154.24 49.08 154.87 47.13Q155.50 45.17 156.88 44.17Q158.26 43.17 160.50 42.84Q162.74 42.51 165.95 42.51Q169.17 42.51 171.40 42.84Q173.63 43.17 175.01 44.17Q176.39 45.17 177.02 47.13Q177.65 49.08 177.65 52.34Q177.65 55.69 177.02 57.70Q176.39 59.71 175.01 60.71Q173.63 61.72 171.40 62.04Q169.17 62.37 165.95 62.37M174.46 52.34Q174.46 49.96 174.22 48.54Q173.98 47.11 173.17 46.39Q172.35 45.66 170.64 45.42Q168.92 45.17 165.95 45.17Q162.99 45.17 161.26 45.42Q159.54 45.66 158.72 46.39Q157.91 47.11 157.67 48.54Q157.43 49.96 157.43 52.34Q157.43 54.79 157.67 56.27Q157.91 57.75 158.72 58.49Q159.54 59.23 161.26 59.47Q162.99 59.71 165.95 59.71Q168.92 59.71 170.64 59.47Q172.35 59.23 173.17 58.49Q173.98 57.75 174.22 56.27Q174.46 54.79 174.46 52.34M184.62 62L181.43 62L181.43 42.88L184.62 42.88L184.62 45.42Q185.34 44.45 186.39 43.80Q187.44 43.16 189.21 42.83Q190.98 42.51 193.85 42.51Q197.60 42.51 199.77 43.24Q201.94 43.97 202.85 45.85Q203.76 47.72 203.76 51.16L203.76 62L200.56 62L200.56 51.16Q200.56 49.20 200.23 48Q199.90 46.81 199.09 46.20Q198.29 45.58 196.87 45.37Q195.46 45.17 193.29 45.17Q189.97 45.17 188.08 45.71Q186.18 46.26 185.40 47.43Q184.62 48.60 184.62 50.48M219.12 62.37Q215.92 62.37 213.67 62.04Q211.43 61.72 210.06 60.71Q208.68 59.71 208.05 57.70Q207.42 55.69 207.42 52.34Q207.42 49.08 208.05 47.13Q208.68 45.17 210.06 44.17Q211.43 43.17 213.67 42.84Q215.92 42.51 219.12 42.51Q222.19 42.51 224.31 42.97Q226.42 43.44 227.64 45.05L227.64 36.50L230.82 36.50L230.82 62L227.64 62L227.64 59.81Q226.42 61.44 224.31 61.90Q222.19 62.37 219.12 62.37M227.64 52.34Q227.64 49.96 227.30 48.54Q226.97 47.11 226.08 46.39Q225.18 45.66 223.50 45.42Q221.83 45.17 219.12 45.17Q216.17 45.17 214.44 45.42Q212.71 45.66 211.90 46.39Q211.08 47.11 210.84 48.54Q210.60 49.96 210.60 52.34Q210.60 54.79 210.84 56.27Q211.08 57.75 211.90 58.49Q212.71 59.23 214.44 59.47Q216.17 59.71 219.12 59.71Q221.83 59.71 223.50 59.47Q225.18 59.23 226.08 58.49Q226.97 57.75 227.30 56.27Q227.64 54.79 227.64 52.34M245.23 62.37Q241.80 62.37 239.56 62.01Q237.33 61.65 236.24 60.44Q235.16 59.23 235.16 56.67Q235.16 54.06 236.18 52.84Q237.20 51.62 239.42 51.26Q241.63 50.89 245.23 50.89Q248.16 50.89 250.13 51.03Q252.11 51.16 253.67 51.49Q253.63 49.28 253.37 48.01Q253.10 46.74 252.37 46.13Q251.64 45.51 250.24 45.34Q248.84 45.17 246.51 45.17Q243.86 45.17 242.35 45.28Q240.85 45.40 240.17 45.70Q239.49 46 239.32 46.56Q239.14 47.13 239.14 48.02L235.95 48.02Q235.95 46.23 236.44 45.13Q236.93 44.04 238.11 43.47Q239.29 42.91 241.34 42.71Q243.39 42.51 246.51 42.51Q249.87 42.51 251.92 42.94Q253.97 43.37 255.04 44.49Q256.11 45.61 256.48 47.62Q256.86 49.63 256.86 52.80L256.86 62L253.67 62L253.67 60.69Q253.10 61.29 252.11 61.65Q251.11 62.02 249.46 62.19Q247.81 62.37 245.23 62.37M245.23 59.78Q248.07 59.78 249.77 59.71Q251.46 59.64 252.30 59.34Q253.14 59.04 253.40 58.38Q253.67 57.72 253.67 56.52L253.67 53.58L245.23 53.48Q242.99 53.45 241.62 53.54Q240.25 53.63 239.54 53.94Q238.83 54.25 238.59 54.90Q238.34 55.56 238.34 56.67Q238.34 57.75 238.59 58.38Q238.83 59.01 239.54 59.31Q240.25 59.61 241.62 59.69Q242.99 59.78 245.23 59.78"/>
  <path fill="#10b981" d="M278.04 62L273.79 62L260.04 36.50L263.70 36.50L275.91 59.74L288.13 36.50L291.74 36.50M298.23 62L295.04 62L295.04 43.94L298.23 43.94L298.23 62M298.23 39.69L295.04 39.69L295.04 36.50L298.23 36.50M322.66 62L302.48 62L302.48 59.34L318.63 45.33L303.54 45.33L303.54 42.88L322.66 42.88L322.66 45.53L306.74 59.51L322.66 59.51M330.10 62L326.91 62L326.91 43.94L330.10 43.94L330.10 62M330.10 39.69L326.91 39.69L326.91 36.50L330.10 36.50M337.61 62L334.42 62L334.42 42.88L337.61 42.88L337.61 45.42Q338.32 44.45 339.37 43.80Q340.43 43.16 342.20 42.83Q343.96 42.51 346.84 42.51Q350.59 42.51 352.75 43.24Q354.92 43.97 355.83 45.85Q356.75 47.72 356.75 51.16L356.75 62L353.54 62L353.54 51.16Q353.54 49.20 353.21 48Q352.88 46.81 352.07 46.20Q351.27 45.58 349.86 45.37Q348.45 45.17 346.27 45.17Q342.95 45.17 341.06 45.71Q339.17 46.26 338.39 47.43Q337.61 48.60 337.61 50.48M364.18 62L361 62L361 36.50L364.18 36.50L364.18 45.42Q364.90 44.45 365.95 43.80Q367.01 43.16 368.77 42.83Q370.54 42.51 373.42 42.51Q377.17 42.51 379.33 43.24Q381.50 43.97 382.41 45.85Q383.33 47.72 383.33 51.16L383.33 62L380.12 62L380.12 51.16Q380.12 49.20 379.79 48Q379.46 46.81 378.65 46.20Q377.85 45.58 376.44 45.37Q375.03 45.17 372.85 45.17Q369.53 45.17 367.64 45.71Q365.75 46.26 364.96 47.43Q364.18 48.60 364.18 50.48M398.72 62.37Q395.51 62.37 393.27 62.04Q391.03 61.72 389.65 60.71Q388.27 59.71 387.64 57.70Q387.01 55.69 387.01 52.34Q387.01 49.08 387.64 47.13Q388.27 45.17 389.65 44.17Q391.03 43.17 393.27 42.84Q395.51 42.51 398.72 42.51Q401.94 42.51 404.17 42.84Q406.40 43.17 407.78 44.17Q409.16 45.17 409.79 47.13Q410.42 49.08 410.42 52.34Q410.42 55.69 409.79 57.70Q409.16 59.71 407.78 60.71Q406.40 61.72 404.17 62.04Q401.94 62.37 398.72 62.37M407.23 52.34Q407.23 49.96 406.99 48.54Q406.75 47.11 405.94 46.39Q405.12 45.66 403.41 45.42Q401.69 45.17 398.72 45.17Q395.76 45.17 394.03 45.42Q392.31 45.66 391.49 46.39Q390.68 47.11 390.44 48.54Q390.20 49.96 390.20 52.34Q390.20 54.79 390.44 56.27Q390.68 57.75 391.49 58.49Q392.31 59.23 394.03 59.47Q395.76 59.71 398.72 59.71Q401.69 59.71 403.41 59.47Q405.12 59.23 405.94 58.49Q406.75 57.75 406.99 56.27Q407.23 54.79 407.23 52.34"/>
  <path fill="#64748b" d="M125.78 92.20L123.32 92.20Q121.94 92.20 121.06 92.01Q120.17 91.82 119.68 91.32Q119.18 90.82 118.98 89.88Q118.78 88.94 118.78 87.43L118.78 87.19Q118.78 85.95 118.90 85.10Q119.03 84.25 119.32 83.72Q119.62 83.19 120.14 82.91Q120.66 82.63 121.44 82.53Q122.22 82.43 123.32 82.43L125.78 82.43Q126.87 82.43 127.66 82.53Q128.44 82.63 128.95 82.91Q129.47 83.19 129.77 83.72Q130.07 84.25 130.19 85.10Q130.31 85.95 130.31 87.19L130.31 87.43Q130.31 88.94 130.11 89.88Q129.91 90.82 129.42 91.32Q128.92 91.82 128.03 92.01Q127.15 92.20 125.78 92.20M123.32 91.18L125.78 91.18Q126.65 91.18 127.25 91.12Q127.84 91.06 128.22 90.86Q128.60 90.66 128.79 90.25Q128.99 89.84 129.07 89.16Q129.14 88.47 129.14 87.43L129.14 87.19Q129.14 86.12 129.07 85.42Q128.99 84.72 128.79 84.32Q128.60 83.92 128.22 83.73Q127.84 83.55 127.25 83.49Q126.65 83.44 125.78 83.44L123.32 83.44Q122.44 83.44 121.85 83.49Q121.25 83.55 120.87 83.73Q120.50 83.92 120.30 84.32Q120.10 84.72 120.03 85.42Q119.95 86.12 119.95 87.19L119.95 87.43Q119.95 88.47 120.03 89.16Q120.10 89.84 120.30 90.25Q120.50 90.66 120.87 90.86Q121.25 91.06 121.85 91.12Q122.44 91.18 123.32 91.18M140.27 92L138.71 92L135.03 84.97L136.41 84.97L139.49 91.12L139.50 91.12L142.64 84.97L143.95 84.97M146.29 92L145.12 92L145.12 85.36L146.29 85.36L146.29 92M146.29 83.80L145.12 83.80L145.12 82.63L146.29 82.63M152.17 94.68Q151.23 94.68 150.47 94.63Q149.70 94.59 149.15 94.41Q148.60 94.24 148.30 93.86Q148 93.49 148 92.84L149.18 92.84Q149.18 93.26 149.51 93.45Q149.84 93.63 150.51 93.67Q151.17 93.70 152.17 93.70Q152.91 93.70 153.43 93.66Q153.96 93.61 154.29 93.39Q154.62 93.17 154.78 92.66Q154.93 92.14 154.93 91.21L154.93 91.04Q154.51 91.59 153.76 91.77Q153.01 91.95 151.91 91.95Q150.76 91.95 149.96 91.81Q149.15 91.68 148.65 91.32Q148.15 90.95 147.91 90.25Q147.68 89.56 147.68 88.44Q147.68 87.24 147.91 86.52Q148.15 85.80 148.65 85.44Q149.15 85.07 149.96 84.95Q150.76 84.83 151.91 84.83Q153.01 84.83 153.76 85Q154.51 85.16 154.93 85.71L154.93 84.97L156.10 84.97L156.10 91.26Q156.08 92.42 155.81 93.10Q155.54 93.79 155.05 94.13Q154.55 94.47 153.82 94.57Q153.10 94.68 152.17 94.68M154.93 88.44Q154.93 87.56 154.83 87.04Q154.72 86.52 154.41 86.25Q154.10 85.99 153.50 85.90Q152.90 85.81 151.91 85.81Q150.86 85.81 150.24 85.90Q149.63 85.99 149.33 86.25Q149.03 86.52 148.94 87.04Q148.85 87.56 148.85 88.44Q148.85 89.23 148.94 89.73Q149.03 90.23 149.33 90.50Q149.62 90.77 150.24 90.87Q150.86 90.97 151.91 90.97Q152.90 90.97 153.50 90.87Q154.10 90.77 154.41 90.50Q154.72 90.23 154.83 89.73Q154.93 89.23 154.93 88.44M158.86 92L157.69 92L157.69 85.36L158.86 85.36L158.86 92M158.86 83.80L157.69 83.80L157.69 82.63L158.86 82.63M164.14 92.13Q162.87 92.13 162.05 92Q161.23 91.87 160.83 91.43Q160.43 90.98 160.43 90.04Q160.43 89.08 160.81 88.63Q161.18 88.19 162 88.05Q162.81 87.92 164.14 87.92Q165.21 87.92 165.94 87.97Q166.66 88.01 167.24 88.14Q167.22 87.32 167.13 86.86Q167.03 86.39 166.76 86.17Q166.49 85.94 165.98 85.88Q165.46 85.81 164.61 85.81Q163.63 85.81 163.08 85.85Q162.53 85.90 162.27 86.01Q162.02 86.12 161.96 86.32Q161.90 86.53 161.90 86.86L160.72 86.86Q160.72 86.20 160.90 85.80Q161.08 85.40 161.52 85.19Q161.95 84.98 162.71 84.91Q163.46 84.83 164.61 84.83Q165.84 84.83 166.59 84.99Q167.35 85.15 167.74 85.56Q168.13 85.98 168.27 86.71Q168.41 87.45 168.41 88.62L168.41 92L167.24 92L167.24 91.52Q167.03 91.74 166.66 91.87Q166.30 92.01 165.69 92.07Q165.08 92.13 164.14 92.13M164.14 91.18Q165.18 91.18 165.80 91.16Q166.43 91.13 166.73 91.02Q167.04 90.91 167.14 90.67Q167.24 90.43 167.24 89.99L167.24 88.91L164.14 88.87Q163.31 88.86 162.81 88.89Q162.31 88.92 162.04 89.04Q161.78 89.15 161.69 89.39Q161.60 89.63 161.60 90.04Q161.60 90.44 161.69 90.67Q161.78 90.90 162.04 91.01Q162.31 91.12 162.81 91.15Q163.31 91.18 164.14 91.18M174.67 92L173.50 92L173.50 85.36L174.67 85.36L174.67 92M174.67 83.80L173.50 83.80L173.50 82.63L174.67 82.63M177.43 92L176.26 92L176.26 84.97L177.43 84.97L177.43 85.90Q177.69 85.55 178.08 85.31Q178.47 85.07 179.12 84.95Q179.77 84.83 180.82 84.83Q182.20 84.83 183 85.10Q183.80 85.37 184.13 86.06Q184.47 86.75 184.47 88.01L184.47 92L183.29 92L183.29 88.01Q183.29 87.29 183.17 86.85Q183.05 86.42 182.75 86.19Q182.45 85.96 181.93 85.89Q181.42 85.81 180.62 85.81Q179.40 85.81 178.70 86.01Q178 86.21 177.72 86.64Q177.43 87.07 177.43 87.76M189.26 92Q188.18 92 187.54 91.78Q186.89 91.57 186.60 91.01Q186.31 90.46 186.31 89.46L186.31 83.05L187.48 83.05L187.48 84.97L191.81 84.97L191.81 85.93L187.48 85.93L187.48 89.46Q187.48 90.14 187.61 90.48Q187.73 90.82 188.11 90.92Q188.50 91.02 189.26 91.02Q189.94 91.02 190.32 90.98Q190.71 90.94 190.89 90.75Q191.08 90.57 191.13 90.14Q191.18 89.71 191.18 88.94L192.21 88.94Q192.21 89.95 192.09 90.56Q191.96 91.17 191.64 91.48Q191.32 91.79 190.74 91.90Q190.17 92 189.26 92M200.49 89.91L201.58 89.91Q201.58 90.70 201.35 91.15Q201.11 91.60 200.63 91.81Q200.15 92.02 199.40 92.08Q198.65 92.13 197.62 92.13Q196.44 92.13 195.62 92.02Q194.80 91.90 194.30 91.53Q193.79 91.16 193.56 90.42Q193.34 89.68 193.34 88.45Q193.34 87.25 193.56 86.53Q193.78 85.81 194.28 85.44Q194.78 85.08 195.60 84.96Q196.41 84.83 197.59 84.83Q198.94 84.83 199.82 85.02Q200.71 85.21 201.15 85.74Q201.58 86.27 201.58 87.30L201.58 88.81L194.51 88.81Q194.52 89.59 194.62 90.06Q194.73 90.53 195.04 90.77Q195.35 91.01 195.97 91.08Q196.59 91.16 197.62 91.16Q198.55 91.16 199.12 91.12Q199.69 91.08 199.99 90.96Q200.28 90.83 200.39 90.58Q200.49 90.33 200.49 89.91M197.59 85.81Q196.59 85.81 195.99 85.88Q195.38 85.96 195.06 86.17Q194.75 86.38 194.63 86.79Q194.52 87.21 194.51 87.89L200.46 87.89L200.46 87.30Q200.46 86.86 200.36 86.57Q200.26 86.28 199.96 86.11Q199.67 85.95 199.10 85.88Q198.53 85.81 197.59 85.81M204.66 92L203.49 92L203.49 82.63L204.66 82.63M207.78 92L206.61 92L206.61 85.36L207.78 85.36L207.78 92M207.78 83.80L206.61 83.80L206.61 82.63L207.78 82.63M213.66 94.68Q212.73 94.68 211.96 94.63Q211.19 94.59 210.65 94.41Q210.10 94.24 209.80 93.86Q209.50 93.49 209.50 92.84L210.67 92.84Q210.67 93.26 211 93.45Q211.33 93.63 212 93.67Q212.67 93.70 213.66 93.70Q214.40 93.70 214.92 93.66Q215.45 93.61 215.78 93.39Q216.11 93.17 216.27 92.66Q216.43 92.14 216.43 91.21L216.43 91.04Q216 91.59 215.25 91.77Q214.50 91.95 213.40 91.95Q212.26 91.95 211.45 91.81Q210.65 91.68 210.14 91.32Q209.64 90.95 209.41 90.25Q209.17 89.56 209.17 88.44Q209.17 87.24 209.41 86.52Q209.64 85.80 210.14 85.44Q210.65 85.07 211.45 84.95Q212.26 84.83 213.40 84.83Q214.50 84.83 215.25 85Q216 85.16 216.43 85.71L216.43 84.97L217.60 84.97L217.60 91.26Q217.57 92.42 217.30 93.10Q217.04 93.79 216.54 94.13Q216.04 94.47 215.32 94.57Q214.59 94.68 213.66 94.68M216.43 88.44Q216.43 87.56 216.32 87.04Q216.21 86.52 215.90 86.25Q215.60 85.99 214.99 85.90Q214.39 85.81 213.40 85.81Q212.35 85.81 211.73 85.90Q211.12 85.99 210.82 86.25Q210.52 86.52 210.43 87.04Q210.35 87.56 210.35 88.44Q210.35 89.23 210.43 89.73Q210.52 90.23 210.82 90.50Q211.12 90.77 211.73 90.87Q212.35 90.97 213.40 90.97Q214.39 90.97 214.99 90.87Q215.60 90.77 215.90 90.50Q216.21 90.23 216.32 89.73Q216.43 89.23 216.43 88.44M226.14 89.91L227.23 89.91Q227.23 90.70 227 91.15Q226.76 91.60 226.28 91.81Q225.80 92.02 225.05 92.08Q224.30 92.13 223.27 92.13Q222.10 92.13 221.27 92.02Q220.45 91.90 219.95 91.53Q219.45 91.16 219.22 90.42Q218.99 89.68 218.99 88.45Q218.99 87.25 219.21 86.53Q219.43 85.81 219.93 85.44Q220.44 85.08 221.25 84.96Q222.06 84.83 223.24 84.83Q224.59 84.83 225.48 85.02Q226.36 85.21 226.80 85.74Q227.23 86.27 227.23 87.30L227.23 88.81L220.17 88.81Q220.17 89.59 220.28 90.06Q220.38 90.53 220.69 90.77Q221 91.01 221.62 91.08Q222.24 91.16 223.27 91.16Q224.20 91.16 224.77 91.12Q225.34 91.08 225.64 90.96Q225.93 90.83 226.04 90.58Q226.14 90.33 226.14 89.91M223.24 85.81Q222.25 85.81 221.64 85.88Q221.03 85.96 220.72 86.17Q220.40 86.38 220.29 86.79Q220.17 87.21 220.17 87.89L226.11 87.89L226.11 87.30Q226.11 86.86 226.01 86.57Q225.91 86.28 225.62 86.11Q225.32 85.95 224.75 85.88Q224.18 85.81 223.24 85.81M229.94 92L228.77 92L228.77 84.97L229.94 84.97L229.94 85.90Q230.21 85.55 230.59 85.31Q230.98 85.07 231.63 84.95Q232.28 84.83 233.34 84.83Q234.72 84.83 235.51 85.10Q236.31 85.37 236.65 86.06Q236.98 86.75 236.98 88.01L236.98 92L235.80 92L235.80 88.01Q235.80 87.29 235.68 86.85Q235.56 86.42 235.26 86.19Q234.97 85.96 234.45 85.89Q233.93 85.81 233.13 85.81Q231.91 85.81 231.21 86.01Q230.52 86.21 230.23 86.64Q229.94 87.07 229.94 87.76M241.77 92Q240.70 92 240.05 91.78Q239.41 91.57 239.12 91.01Q238.83 90.46 238.83 89.46L238.83 83.05L240 83.05L240 84.97L244.32 84.97L244.32 85.93L240 85.93L240 89.46Q240 90.14 240.12 90.48Q240.25 90.82 240.63 90.92Q241.01 91.02 241.77 91.02Q242.45 91.02 242.84 90.98Q243.23 90.94 243.41 90.75Q243.59 90.57 243.64 90.14Q243.69 89.71 243.69 88.94L244.73 88.94Q244.73 89.95 244.60 90.56Q244.48 91.17 244.16 91.48Q243.84 91.79 243.26 91.90Q242.68 92 241.77 92M253 89.91L254.10 89.91Q254.10 90.70 253.86 91.15Q253.63 91.60 253.14 91.81Q252.66 92.02 251.91 92.08Q251.17 92.13 250.14 92.13Q248.96 92.13 248.14 92.02Q247.32 91.90 246.81 91.53Q246.31 91.16 246.08 90.42Q245.85 89.68 245.85 88.45Q245.85 87.25 246.07 86.53Q246.30 85.81 246.80 85.44Q247.30 85.08 248.11 84.96Q248.93 84.83 250.10 84.83Q251.45 84.83 252.34 85.02Q253.22 85.21 253.66 85.74Q254.10 86.27 254.10 87.30L254.10 88.81L247.03 88.81Q247.03 89.59 247.14 90.06Q247.24 90.53 247.55 90.77Q247.86 91.01 248.48 91.08Q249.10 91.16 250.14 91.16Q251.06 91.16 251.63 91.12Q252.20 91.08 252.50 90.96Q252.80 90.83 252.90 90.58Q253 90.33 253 89.91M250.10 85.81Q249.11 85.81 248.50 85.88Q247.90 85.96 247.58 86.17Q247.26 86.38 247.15 86.79Q247.03 87.21 247.03 87.89L252.97 87.89L252.97 87.30Q252.97 86.86 252.87 86.57Q252.77 86.28 252.48 86.11Q252.19 85.95 251.62 85.88Q251.04 85.81 250.10 85.81M263.27 92.13Q262.09 92.13 261.27 92.02Q260.44 91.90 259.94 91.53Q259.43 91.16 259.20 90.42Q258.97 89.68 258.97 88.45Q258.97 87.25 259.20 86.53Q259.43 85.81 259.94 85.44Q260.44 85.08 261.27 84.96Q262.09 84.83 263.27 84.83Q264.40 84.83 265.18 85.01Q265.96 85.18 266.40 85.77L266.40 82.63L267.57 82.63L267.57 92L266.40 92L266.40 91.19Q265.96 91.79 265.18 91.96Q264.40 92.13 263.27 92.13M266.40 88.45Q266.40 87.57 266.28 87.05Q266.16 86.53 265.83 86.26Q265.50 85.99 264.88 85.90Q264.26 85.81 263.27 85.81Q262.18 85.81 261.55 85.90Q260.91 85.99 260.61 86.26Q260.32 86.53 260.23 87.05Q260.14 87.57 260.14 88.45Q260.14 89.35 260.23 89.89Q260.32 90.44 260.61 90.71Q260.91 90.98 261.55 91.07Q262.18 91.16 263.27 91.16Q264.26 91.16 264.88 91.07Q265.50 90.98 265.83 90.71Q266.16 90.44 266.28 89.89Q266.40 89.35 266.40 88.45M272.87 92.13Q271.61 92.13 270.79 92Q269.97 91.87 269.57 91.43Q269.17 90.98 269.17 90.04Q269.17 89.08 269.54 88.63Q269.92 88.19 270.73 88.05Q271.55 87.92 272.87 87.92Q273.94 87.92 274.67 87.97Q275.40 88.01 275.97 88.14Q275.96 87.32 275.86 86.86Q275.76 86.39 275.50 86.17Q275.23 85.94 274.71 85.88Q274.20 85.81 273.34 85.81Q272.36 85.81 271.81 85.85Q271.26 85.90 271.01 86.01Q270.76 86.12 270.69 86.32Q270.63 86.53 270.63 86.86L269.46 86.86Q269.46 86.20 269.64 85.80Q269.82 85.40 270.25 85.19Q270.69 84.98 271.44 84.91Q272.19 84.83 273.34 84.83Q274.57 84.83 275.33 84.99Q276.08 85.15 276.47 85.56Q276.87 85.98 277.01 86.71Q277.14 87.45 277.14 88.62L277.14 92L275.97 92L275.97 91.52Q275.76 91.74 275.40 91.87Q275.03 92.01 274.42 92.07Q273.82 92.13 272.87 92.13M272.87 91.18Q273.91 91.18 274.54 91.16Q275.16 91.13 275.47 91.02Q275.78 90.91 275.87 90.67Q275.97 90.43 275.97 89.99L275.97 88.91L272.87 88.87Q272.05 88.86 271.54 88.89Q271.04 88.92 270.78 89.04Q270.51 89.15 270.43 89.39Q270.34 89.63 270.34 90.04Q270.34 90.44 270.43 90.67Q270.51 90.90 270.78 91.01Q271.04 91.12 271.54 91.15Q272.05 91.18 272.87 91.18M286.21 92.13Q284.93 92.13 284.15 92.05Q283.37 91.96 282.97 91.73Q282.57 91.50 282.43 91.07Q282.29 90.65 282.29 89.96L283.42 89.96Q283.42 90.35 283.47 90.58Q283.53 90.82 283.78 90.94Q284.04 91.07 284.62 91.11Q285.19 91.16 286.24 91.16Q287.34 91.16 287.96 91.11Q288.57 91.07 288.84 90.94Q289.11 90.82 289.16 90.58Q289.22 90.34 289.22 89.95Q289.22 89.47 289.14 89.24Q289.05 89 288.73 88.91Q288.42 88.83 287.72 88.83L284.93 88.80Q283.84 88.78 283.28 88.61Q282.71 88.44 282.50 88.01Q282.29 87.58 282.29 86.79Q282.29 86.05 282.52 85.65Q282.75 85.24 283.24 85.07Q283.73 84.90 284.51 84.87Q285.29 84.83 286.40 84.83Q287.70 84.83 288.46 84.91Q289.23 84.99 289.61 85.21Q289.99 85.43 290.11 85.85Q290.23 86.27 290.23 86.94L289.11 86.94Q289.11 86.54 289.05 86.31Q289 86.09 288.76 85.98Q288.51 85.87 287.97 85.84Q287.43 85.81 286.46 85.81Q285.35 85.81 284.73 85.84Q284.11 85.86 283.84 85.95Q283.56 86.04 283.50 86.24Q283.44 86.44 283.44 86.79Q283.44 87.14 283.48 87.35Q283.52 87.55 283.69 87.65Q283.86 87.76 284.25 87.79Q284.64 87.83 285.33 87.83L287.74 87.86Q288.83 87.87 289.40 88.04Q289.96 88.20 290.16 88.65Q290.37 89.10 290.37 89.95Q290.37 90.71 290.15 91.15Q289.92 91.59 289.44 91.80Q288.95 92.01 288.15 92.07Q287.35 92.13 286.21 92.13M295.55 92.13Q294.17 92.13 293.37 91.83Q292.58 91.53 292.24 90.82Q291.91 90.11 291.91 88.88L291.91 84.97L293.09 84.97L293.09 88.88Q293.09 89.57 293.20 90.02Q293.31 90.47 293.60 90.72Q293.89 90.96 294.41 91.06Q294.93 91.16 295.75 91.16Q296.97 91.16 297.67 90.96Q298.36 90.75 298.65 90.32Q298.94 89.89 298.94 89.20L298.94 84.97L300.12 84.97L300.12 92L298.94 92L298.94 91.07Q298.69 91.42 298.30 91.66Q297.91 91.90 297.25 92.02Q296.60 92.13 295.55 92.13M305.41 92.13Q304.15 92.13 303.33 92Q302.51 91.87 302.11 91.43Q301.71 90.98 301.71 90.04Q301.71 89.08 302.09 88.63Q302.46 88.19 303.28 88.05Q304.09 87.92 305.41 87.92Q306.49 87.92 307.22 87.97Q307.94 88.01 308.52 88.14Q308.50 87.32 308.41 86.86Q308.31 86.39 308.04 86.17Q307.77 85.94 307.25 85.88Q306.74 85.81 305.88 85.81Q304.91 85.81 304.36 85.85Q303.80 85.90 303.55 86.01Q303.30 86.12 303.24 86.32Q303.17 86.53 303.17 86.86L302 86.86Q302 86.20 302.18 85.80Q302.36 85.40 302.80 85.19Q303.23 84.98 303.98 84.91Q304.74 84.83 305.88 84.83Q307.12 84.83 307.87 84.99Q308.63 85.15 309.02 85.56Q309.41 85.98 309.55 86.71Q309.69 87.45 309.69 88.62L309.69 92L308.52 92L308.52 91.52Q308.31 91.74 307.94 91.87Q307.58 92.01 306.97 92.07Q306.36 92.13 305.41 92.13M305.41 91.18Q306.46 91.18 307.08 91.16Q307.70 91.13 308.01 91.02Q308.32 90.91 308.42 90.67Q308.52 90.43 308.52 89.99L308.52 88.91L305.41 88.87Q304.59 88.86 304.09 88.89Q303.58 88.92 303.32 89.04Q303.06 89.15 302.97 89.39Q302.88 89.63 302.88 90.04Q302.88 90.44 302.97 90.67Q303.06 90.90 303.32 91.01Q303.58 91.12 304.09 91.15Q304.59 91.18 305.41 91.18M316.07 92L314.90 92L314.90 84.97L316.07 84.97L316.07 85.94Q316.27 85.63 316.46 85.42Q316.66 85.21 316.98 85.09Q317.30 84.97 317.85 84.92Q318.40 84.86 319.30 84.86L319.30 85.85Q318.09 85.85 317.43 85.93Q316.77 86.02 316.48 86.22Q316.19 86.43 316.13 86.79Q316.07 87.15 316.07 87.70M324.41 92.13Q323.03 92.13 322.24 91.83Q321.44 91.53 321.11 90.82Q320.77 90.11 320.77 88.88L320.77 84.97L321.95 84.97L321.95 88.88Q321.95 89.57 322.06 90.02Q322.17 90.47 322.46 90.72Q322.75 90.96 323.27 91.06Q323.79 91.16 324.62 91.16Q325.84 91.16 326.53 90.96Q327.23 90.75 327.52 90.32Q327.81 89.89 327.81 89.20L327.81 84.97L328.98 84.97L328.98 92L327.81 92L327.81 91.07Q327.55 91.42 327.16 91.66Q326.77 91.90 326.12 92.02Q325.46 92.13 324.41 92.13M334.28 92.13Q333.01 92.13 332.19 92Q331.37 91.87 330.97 91.43Q330.57 90.98 330.57 90.04Q330.57 89.08 330.95 88.63Q331.32 88.19 332.14 88.05Q332.95 87.92 334.28 87.92Q335.35 87.92 336.08 87.97Q336.80 88.01 337.38 88.14Q337.37 87.32 337.27 86.86Q337.17 86.39 336.90 86.17Q336.63 85.94 336.12 85.88Q335.60 85.81 334.75 85.81Q333.77 85.81 333.22 85.85Q332.67 85.90 332.42 86.01Q332.17 86.12 332.10 86.32Q332.04 86.53 332.04 86.86L330.87 86.86Q330.87 86.20 331.05 85.80Q331.23 85.40 331.66 85.19Q332.09 84.98 332.85 84.91Q333.60 84.83 334.75 84.83Q335.98 84.83 336.73 84.99Q337.49 85.15 337.88 85.56Q338.28 85.98 338.41 86.71Q338.55 87.45 338.55 88.62L338.55 92L337.38 92L337.38 91.52Q337.17 91.74 336.80 91.87Q336.44 92.01 335.83 92.07Q335.22 92.13 334.28 92.13M334.28 91.18Q335.32 91.18 335.94 91.16Q336.57 91.13 336.88 91.02Q337.18 90.91 337.28 90.67Q337.38 90.43 337.38 89.99L337.38 88.91L334.28 88.87Q333.45 88.86 332.95 88.89Q332.45 88.92 332.18 89.04Q331.92 89.15 331.83 89.39Q331.75 89.63 331.75 90.04Q331.75 90.44 331.83 90.67Q331.92 90.90 332.18 91.01Q332.45 91.12 332.95 91.15Q333.45 91.18 334.28 91.18"/>
</svg>